<?xml version="1.0" encoding="utf-8"?>
<!-- Generator: Adobe Illustrator 25.2.2, SVG Export Plug-In . SVG Version: 6.00 Build 0)  -->
<svg version="1.1" id="Ebene_1" xmlns="http://www.w3.org/2000/svg" xmlns:xlink="http://www.w3.org/1999/xlink" x="0px" y="0px"
	 viewBox="0 0 512 512" style="enable-background:new 0 0 512 512;" xml:space="preserve">
<style type="text/css">
	.st0{fill:#FFFFFF;}
</style>
<path class="st0" d="M489.73,183.85c-29.69-29.69-77.82-29.69-107.51,0L245.52,320.56l-0.02-71.65l0.01-0.01L402.64,91.76
	c9.9-9.9,25.94-9.9,35.84,0c9.9,9.9,9.9,25.94,0,35.84l0.08,0.08c18.15,0.42,35.56,5.2,51.03,13.87
	c12.97-28.09,7.88-62.47-15.28-85.63c-29.69-29.69-77.82-29.69-107.51,0L245.48,177.26l-0.02-72.06l0.08-71.94L122.81,155.98
	L0.09,33.26L0,105.02l0.2,0.2l0.28,184.85l50.68,50.78l-0.15-184.82l71.78,71.78v0.02l0.01-0.01l0.01,0.01v-0.02l71.8-71.8
	l-0.05,72.13l-74,74c-29.69,29.69-29.69,77.82,0,107.51c21.27,21.27,52.02,27.3,78.66,18.08c3.65,10.49,9.66,20.35,18.04,28.73
	c8.25,8.25,17.93,14.2,28.24,17.87v0.06c26.74,9.43,57.7,3.46,79.09-17.93l0,0l165.12-165.12
	C519.42,261.68,519.42,213.54,489.73,183.85z M192.25,373.83c-9.9,9.9-25.94,9.9-35.84,0c-9.9-9.9-9.9-25.94,0-35.84l26.89-26.89
	l11.22-11.22l-0.05,71.72L192.25,373.83z M453.9,255.53L288.78,420.65c-9.9,9.9-25.94,9.9-35.84,0c-4.23-4.23-6.64-9.59-7.25-15.11
	l-0.17-2.8v-10.5l172.54-172.54c9.9-9.9,25.94-9.9,35.84,0C463.79,229.59,463.79,245.63,453.9,255.53z"/>
</svg>
