<?xml version="1.0" encoding="utf-8"?>
<!-- Generator: Adobe Illustrator 25.2.2, SVG Export Plug-In . SVG Version: 6.00 Build 0)  -->
<svg version="1.1" id="Ebene_1" xmlns="http://www.w3.org/2000/svg" xmlns:xlink="http://www.w3.org/1999/xlink" x="0px" y="0px"
	 viewBox="0 0 512 512" style="enable-background:new 0 0 512 512;" xml:space="preserve">
<style type="text/css">
	.st0{fill:#FF3E00;}
	.st1{fill:#00B0FF;}
</style>
<g>
	<path class="st0" d="M245.5,248.9L402.64,91.76c9.9-9.9,25.94-9.9,35.84,0c9.9,9.9,9.9,25.94,0,35.84l0.08,0.08
		c18.15,0.42,35.56,5.2,51.03,13.87c12.97-28.09,7.88-62.47-15.28-85.63c-29.69-29.69-77.82-29.69-107.51,0L245.48,177.25
		L245.5,248.9z"/>
	<path class="st0" d="M489.73,183.85c-29.69-29.69-77.82-29.69-107.51,0L192.25,373.83c-9.9,9.9-25.94,9.9-35.84,0
		c-9.9-9.9-9.9-25.94,0-35.84l38.1-38.1l0.05-71.72l-73.98,73.98c-29.69,29.69-29.69,77.82,0,107.51
		c21.27,21.27,52.02,27.3,78.66,18.08c3.65,10.49,9.66,20.35,18.04,28.73c8.25,8.25,17.93,14.2,28.24,17.87v0.06
		c26.74,9.43,57.7,3.46,79.09-17.93l0,0l165.12-165.12C519.42,261.68,519.42,213.54,489.73,183.85z M453.9,255.53L288.78,420.65
		c-9.9,9.9-25.94,9.9-35.84,0c-4.23-4.23-6.64-9.59-7.25-15.11l-0.17-2.8v-10.5l172.54-172.54c9.9-9.9,25.94-9.9,35.84,0
		C463.79,229.59,463.79,245.63,453.9,255.53z"/>
</g>
<polygon class="st1" points="122.81,227.83 122.81,227.85 122.81,227.84 122.82,227.85 122.82,227.83 194.62,156.03 194.47,371.61 
	245.52,320.56 245.46,105.2 245.54,33.26 122.81,155.98 0.09,33.26 0,105.02 0.2,105.23 0.49,290.08 51.17,340.86 51.02,156.04 "/>
</svg>
