<svg xmlns="http://www.w3.org/2000/svg" viewBox="0 0 381.78 118.18">
	<path fill="#14ab8e" d="M44.67 20.51C33 19.87 35 9.77 41 8.22c5.56-1.45 8.35 5.85 8.35 5.85C50.39 12.6 56 5.49 58 8.41c1.9 2.71 4.45 4.23 5.19 4.25C75.9.46 80.08-1.14 84.9.57c13.87 4.94 17 21.52 9 30.14-5.69 6.12-21.62 3.57-21.62 3.57l8 6.09c-5.11 7.26-16.89 4.94-16.89 4.94 10.21 22-5.3 39.48-5.3 39.48h-15c0 .12 2.22-11.22-9.69-11.07-10 .13-8.33 11.07-8.33 11.07H9.36c-1.42-3.07-18-24.46-3.34-46 13.81-20.25 35.79-14.1 35.79-14.1zm12.79-3.69a3.14 3.14 0 103.23 3 3.14 3.14 0 00-3.23-3z"/>
	<path fill="#1d1d1d" d="M115.62 35.23V53.9h.21a11.47 11.47 0 014.79-4.55 13 13 0 015.69-1.42A16.68 16.68 0 01132.8 49a9.55 9.55 0 014 3 11.37 11.37 0 012.05 4.65 29.23 29.23 0 01.59 6.08v22.06h-9.86V64.52q0-4.44-1.38-6.63c-.93-1.46-2.57-2.18-4.93-2.18-2.69 0-4.63.79-5.83 2.39s-1.81 4.22-1.81 7.88v18.81h-9.86V35.23zM147.9 59.94a11.46 11.46 0 011.74-5.76 11.67 11.67 0 013.88-3.68 16.87 16.87 0 015.31-2 30.52 30.52 0 015.94-.59 40.94 40.94 0 015.48.38 17 17 0 015.07 1.49 9.94 9.94 0 013.75 3.09 8.65 8.65 0 011.46 5.24v18.7a36.54 36.54 0 00.28 4.65 8.2 8.2 0 001 3.33h-10a13.7 13.7 0 01-.45-1.7 13 13 0 01-.24-1.77 12.82 12.82 0 01-5.56 3.4 22.2 22.2 0 01-6.52 1 17.45 17.45 0 01-4.79-.62 11 11 0 01-3.89-1.94 9 9 0 01-2.6-3.34 11.15 11.15 0 01-.94-4.79 10.44 10.44 0 011.08-5 9 9 0 012.77-3.16 12.81 12.81 0 013.86-1.87 45 45 0 014.41-.94c1.48-.23 2.94-.41 4.37-.55a26 26 0 003.82-.63 6.61 6.61 0 002.64-1.21 2.65 2.65 0 00.9-2.33 5.21 5.21 0 00-.52-2.53 3.91 3.91 0 00-1.39-1.46 5.5 5.5 0 00-2-.69 16.06 16.06 0 00-2.47-.17 7.5 7.5 0 00-4.58 1.24 5.59 5.59 0 00-1.94 4.17zm22.77 7.29a4.52 4.52 0 01-1.56.87 18.4 18.4 0 01-2 .52c-.72.14-1.47.25-2.26.34s-1.58.21-2.36.35a18.5 18.5 0 00-2.19.56 6.42 6.42 0 00-1.87.93 4.68 4.68 0 00-1.29 1.5 4.83 4.83 0 00-.48 2.29 4.67 4.67 0 00.48 2.22 3.84 3.84 0 001.32 1.42 5.61 5.61 0 002 .73 12.27 12.27 0 002.29.21 8.71 8.71 0 004.51-1 6.59 6.59 0 002.36-2.33 7.45 7.45 0 00.94-2.74 20.15 20.15 0 00.17-2.22zM198.92 48.9v4.58h.14a10.84 10.84 0 014.58-4.23 14.05 14.05 0 016.11-1.32 15.44 15.44 0 017.29 1.6 14.92 14.92 0 015.07 4.23 18 18 0 013 6.15 27.52 27.52 0 011 7.32 24.92 24.92 0 01-1 6.94 17.7 17.7 0 01-3 5.9 14.63 14.63 0 01-4.92 4.1 14.94 14.94 0 01-6.91 1.52 14.06 14.06 0 01-6.15-1.35 11.58 11.58 0 01-4.61-4h-.14v17h-9.86V48.9zm12.81 28.46a7.8 7.8 0 002.64-2.53 10.53 10.53 0 001.42-3.64 21.39 21.39 0 00.42-4.24 19.92 19.92 0 00-.45-4.23 11.18 11.18 0 00-1.5-3.72 8.41 8.41 0 00-2.67-2.64 7.48 7.48 0 00-4-1 7.61 7.61 0 00-4.06 1A8.13 8.13 0 00200.9 59a10.83 10.83 0 00-1.42 3.68 21.7 21.7 0 00-.42 4.3 20 20 0 00.45 4.24 11 11 0 001.49 3.61 7.72 7.72 0 002.67 2.53 8.84 8.84 0 008.09 0zM242.73 48.9v4.58h.14a10.84 10.84 0 014.58-4.23 14.05 14.05 0 016.11-1.32 15.5 15.5 0 017.29 1.6 15 15 0 015.06 4.23 17.81 17.81 0 013 6.15 27.12 27.12 0 011 7.32 24.55 24.55 0 01-1 6.94 17.68 17.68 0 01-2.95 5.9 14.66 14.66 0 01-4.93 4.1 14.94 14.94 0 01-6.91 1.52 14 14 0 01-6.12-1.35 11.55 11.55 0 01-4.62-4h-.14v17h-9.85V48.9zm12.81 28.46a7.86 7.86 0 002.63-2.53 10.54 10.54 0 001.43-3.64A22.16 22.16 0 00260 67a19.92 19.92 0 00-.45-4.23 11.38 11.38 0 00-1.48-3.77 8.62 8.62 0 00-2.67-2.64 7.49 7.49 0 00-4-1 7.61 7.61 0 00-4.06 1 8.2 8.2 0 00-2.63 2.64 10.64 10.64 0 00-1.43 3.68 22.48 22.48 0 00-.41 4.3 20 20 0 00.45 4.24 11 11 0 001.45 3.64 8.4 8.4 0 0010.77 2.53zM274.59 59.07a16.43 16.43 0 019.58-9.79 20.55 20.55 0 017.64-1.35 20.82 20.82 0 017.67 1.35 16.37 16.37 0 019.61 9.79 22 22 0 011.32 7.81 21.78 21.78 0 01-1.32 7.78 16.86 16.86 0 01-3.75 5.93 16.1 16.1 0 01-5.86 3.78 21.25 21.25 0 01-7.67 1.32 21 21 0 01-7.64-1.32 16.15 16.15 0 01-5.83-3.78 16.86 16.86 0 01-3.75-5.93 21.78 21.78 0 01-1.32-7.78 22 22 0 011.32-7.81zm9 12a11 11 0 001.41 3.69 7.47 7.47 0 002.67 2.6 8.14 8.14 0 004.17 1 8.36 8.36 0 004.2-1 7.4 7.4 0 002.7-2.6 11.26 11.26 0 001.43-3.68 21.52 21.52 0 00.41-4.2 22.14 22.14 0 00-.41-4.23 10.84 10.84 0 00-1.46-3.65 7.94 7.94 0 00-2.7-2.61 8.16 8.16 0 00-4.2-1 8 8 0 00-4.17 1A8 8 0 00285 59a10.62 10.62 0 00-1.42 3.68 21.37 21.37 0 00-.42 4.23 20.78 20.78 0 00.39 4.17zM321.49 78.37v6.42h-6.42v-6.42zM328.54 42.45v-7.22h5.9v7.22zm5.9 6.45v35.89h-5.9V48.9zM344.16 59.49a16.77 16.77 0 013.33-6 15.68 15.68 0 015.48-4 20.07 20.07 0 0115 0 15.66 15.66 0 015.45 4 16.79 16.79 0 013.34 6 23.88 23.88 0 011.11 7.39 23.6 23.6 0 01-1.11 7.36 16.83 16.83 0 01-3.34 5.94 15.31 15.31 0 01-5.42 3.95 20.46 20.46 0 01-15 0 15.34 15.34 0 01-5.48-3.95 16.81 16.81 0 01-3.33-5.94 23.6 23.6 0 01-1.11-7.36 23.88 23.88 0 011.08-7.39zm6 13.19a12.07 12.07 0 002.4 4.23 10.36 10.36 0 003.57 2.61 10.91 10.91 0 008.68 0 10.3 10.3 0 003.58-2.61 12.21 12.21 0 002.39-4.23 19.77 19.77 0 000-11.6 12.64 12.64 0 00-2.39-4.26 10.14 10.14 0 00-3.58-2.64 10.91 10.91 0 00-8.68 0 10.19 10.19 0 00-3.57 2.64 12.49 12.49 0 00-2.4 4.26 20 20 0 000 11.6z"/>
</svg>
